<svg xmlns="http://www.w3.org/2000/svg" width="185.479" height="162.571" viewBox="0 0 185.479 162.571" fill="none">
  <path d="M 65.768 141.29 C 71.384 141.29 76.853 145.724 76.853 152.227 C 76.852 158.138 71.974 162.571 65.472 162.571 C 59.265 162.571 54.388 157.842 54.388 152.227 C 54.388 146.61 59.265 141.438 65.768 141.29 Z M 93.258 141.438 C 98.578 141.438 103.603 146.019 103.751 151.782 C 103.751 157.842 99.317 162.571 92.814 162.571 C 86.755 162.571 82.025 158.137 82.025 152.226 C 82.026 147.496 85.573 141.438 93.258 141.438 Z M 120.451 141.29 C 126.067 141.29 131.684 145.133 131.684 152.227 C 131.683 157.843 127.249 162.571 120.155 162.571 C 113.505 162.571 109.515 157.842 109.515 152.227 C 109.515 146.61 114.244 141.438 120.451 141.29 Z M 65.768 143.358 C 61.629 143.358 56.604 146.906 56.604 152.227 C 56.605 157.251 60.89 160.798 65.472 160.798 C 70.349 160.798 74.636 157.104 74.636 152.227 C 74.636 147.202 70.201 143.358 65.768 143.358 Z M 92.962 143.358 C 88.528 143.358 84.095 146.905 84.095 152.226 C 84.095 156.659 87.937 160.798 92.814 160.798 C 98.283 160.798 101.682 156.364 101.682 152.226 C 101.681 147.792 97.396 143.358 92.962 143.358 Z M 120.451 143.358 C 116.313 143.358 111.584 146.906 111.584 152.227 C 111.584 156.66 115.131 160.798 120.451 160.798 C 125.18 160.798 129.467 157.104 129.467 152.227 C 129.467 147.202 124.885 143.358 120.451 143.358 Z M 92.962 117.791 C 98.282 117.791 103.603 121.485 103.604 129.022 C 103.604 134.491 99.317 139.516 92.814 139.516 C 86.903 139.516 82.026 135.082 82.025 129.171 C 82.025 124.737 85.277 118.53 92.962 117.791 Z M 92.962 120.008 C 88.233 120.008 84.095 123.85 84.095 129.022 C 84.095 133.308 87.937 137.447 92.814 137.447 C 97.987 137.447 101.681 133.604 101.682 129.171 C 101.682 124.442 97.396 120.008 92.962 120.008 Z M 174.247 111.14 C 180.159 111.14 185.479 116.165 185.479 123.85 C 185.479 129.761 181.046 135.673 173.804 135.969 C 166.858 136.264 162.424 130.944 162.424 124.146 C 162.424 118.529 166.562 111.14 174.247 111.14 Z M 11.972 111.14 C 18.326 111.14 23.203 116.165 23.203 124.293 C 23.203 129.761 18.622 135.969 11.38 135.969 C 5.025 135.969 0 131.239 0 124.293 C 0 118.677 4.878 111.14 11.972 111.14 Z M 11.38 113.504 C 7.242 113.504 2.513 117.199 2.513 124.146 C 2.513 128.284 6.06 133.899 11.972 133.899 C 16.553 133.899 21.135 130.057 21.135 124.293 C 21.135 119.268 16.996 113.504 11.38 113.504 Z M 174.1 113.504 C 168.927 113.356 164.788 117.938 164.788 123.85 C 164.788 128.283 168.04 133.899 173.951 133.899 C 179.863 133.899 183.706 129.17 183.706 124.146 C 183.706 118.529 178.681 113.504 174.1 113.504 Z M 65.768 94.735 C 71.384 94.735 76.853 99.021 76.853 104.933 C 76.853 110.549 72.714 116.165 65.768 116.165 C 59.265 116.165 54.388 111.14 54.388 104.933 C 54.388 100.203 58.378 94.735 65.768 94.735 Z M 93.258 94.144 C 98.578 94.144 103.603 98.134 103.604 104.637 C 103.604 110.253 99.317 115.278 92.814 115.278 C 86.755 115.278 82.025 110.548 82.025 104.637 C 82.025 100.055 85.277 94.144 93.258 94.144 Z M 65.768 96.656 C 61.925 96.656 56.604 99.317 56.604 104.933 C 56.605 109.957 60.891 113.8 65.768 113.8 C 70.497 113.8 74.636 110.253 74.636 104.933 C 74.636 100.203 70.201 96.656 65.768 96.656 Z M 92.962 96.064 C 89.119 96.065 84.095 99.021 84.095 104.637 C 84.095 108.332 87.641 112.913 92.962 112.913 C 98.282 112.913 101.682 108.775 101.682 104.637 C 101.682 99.612 97.1 96.064 92.962 96.064 Z M 174.1 83.799 C 180.159 83.799 185.479 88.676 185.479 95.77 C 185.479 101.977 181.045 107.149 173.951 107.149 C 167.301 107.445 162.424 102.272 162.424 95.77 C 162.424 89.562 166.858 83.799 174.1 83.799 Z M 11.972 83.799 C 18.179 83.799 23.352 88.971 23.352 95.77 C 23.352 101.681 18.622 107.149 11.232 107.149 C 5.321 107.149 0.296 102.568 0.296 95.917 C 0.296 90.005 5.321 83.799 11.972 83.799 Z M 11.232 85.867 C 7.094 85.867 2.513 89.415 2.513 95.77 C 2.513 100.203 6.06 104.933 11.676 104.933 C 17.292 104.933 21.135 100.942 21.135 95.77 C 21.135 90.449 16.11 85.867 11.232 85.867 Z M 174.1 85.867 C 169.223 85.867 164.788 90.005 164.788 95.474 C 164.788 101.533 169.518 104.932 173.951 104.933 C 179.863 104.933 183.706 100.499 183.706 95.77 C 183.706 90.153 178.977 85.867 174.1 85.867 Z M 119.859 72.714 C 126.658 72.714 131.092 77.443 131.24 82.764 C 131.24 88.38 126.953 93.109 119.859 93.109 C 113.357 93.405 108.775 88.38 108.775 82.764 C 108.775 78.626 112.175 72.714 119.859 72.714 Z M 65.768 71.236 C 71.088 71.236 77 75.078 77 81.877 C 77 88.232 71.975 92.666 65.62 92.666 C 59.561 92.666 54.388 88.084 54.388 81.877 C 54.388 77.443 58.082 71.236 65.768 71.236 Z M 119.859 74.783 C 115.721 74.783 111.14 78.035 111.14 82.764 C 111.14 87.493 115.13 91.04 119.859 91.04 C 123.998 91.04 129.023 87.641 129.023 82.764 C 129.023 78.034 124.884 74.783 119.859 74.783 Z M 65.768 73.305 C 61.629 73.305 56.604 76.409 56.604 81.877 C 56.605 86.902 60.89 90.596 65.472 90.597 C 70.349 90.597 74.636 86.902 74.636 81.877 C 74.636 76.852 70.201 73.305 65.768 73.305 Z M 174.247 55.718 C 180.159 55.718 185.479 60.447 185.479 67.984 C 185.479 73.896 181.045 79.808 173.951 79.956 C 167.301 80.251 162.424 75.078 162.424 67.984 C 162.424 62.368 166.71 55.718 174.247 55.718 Z M 11.971 55.718 C 18.178 55.57 23.203 60.595 23.203 67.984 C 23.203 73.6 18.178 79.955 11.231 79.955 C 4.877 79.955 0.147 74.93 0.147 68.132 C 0.148 63.107 4.581 55.718 11.971 55.718 Z M 174.1 57.935 C 168.927 57.935 164.788 62.073 164.788 67.984 C 164.788 72.418 168.336 77.739 174.1 77.739 C 179.863 77.739 183.706 73.009 183.706 67.984 C 183.706 62.368 178.977 57.935 174.1 57.935 Z M 11.231 57.935 C 7.241 57.935 2.512 61.334 2.512 67.984 C 2.512 71.975 5.911 77.738 11.971 77.738 C 16.7 77.738 21.134 73.6 21.134 68.132 C 21.134 63.255 16.995 57.935 11.231 57.935 Z M 120.155 49.658 C 126.067 49.658 131.092 53.501 131.24 60.299 C 131.24 65.028 127.249 70.645 119.859 70.645 C 113.357 70.644 108.775 66.21 108.775 60.299 C 108.776 56.161 112.47 50.249 120.155 49.658 Z M 120.008 52.022 C 115.722 52.022 110.992 55.126 110.992 60.299 C 110.992 64.141 114.539 68.871 120.155 68.575 C 124.589 68.575 129.023 65.029 129.023 60.447 C 129.023 55.866 124.885 52.023 120.008 52.022 Z M 174.1 27.638 C 180.159 27.638 185.479 32.514 185.479 39.313 C 185.479 45.668 180.75 51.284 173.951 51.284 C 167.449 51.579 162.424 46.406 162.424 39.313 C 162.424 33.696 167.153 27.638 174.1 27.638 Z M 11.823 27.638 C 17.735 27.638 23.35 32.366 23.351 39.313 C 23.351 45.224 18.621 51.284 11.231 51.284 C 5.615 51.284 0.147 47.146 0.147 39.608 C 0.147 33.992 5.025 27.638 11.823 27.638 Z M 92.962 26.603 C 99.317 26.603 104.49 31.48 104.49 37.835 C 104.49 43.451 100.204 49.067 92.814 49.067 C 86.164 49.067 81.139 44.042 81.139 37.539 C 81.139 32.81 85.277 26.603 92.962 26.603 Z M 11.38 29.854 C 7.242 29.854 2.66 33.401 2.66 39.313 C 2.66 44.042 6.65 48.771 11.527 48.771 C 16.7 48.771 21.134 44.781 21.134 39.313 C 21.134 34.583 16.996 29.855 11.38 29.854 Z M 174.1 29.854 C 170.257 29.854 164.788 32.81 164.788 39.313 C 164.788 44.042 168.631 48.771 173.951 48.771 C 178.681 48.771 183.706 45.224 183.706 39.313 C 183.706 33.992 179.272 29.855 174.1 29.854 Z M 92.814 28.672 C 87.937 28.672 83.503 32.219 83.503 37.835 C 83.503 42.564 87.494 46.702 92.666 46.702 C 97.986 46.702 102.273 42.416 102.273 37.835 C 102.273 33.106 97.987 28.672 92.814 28.672 Z M 65.324 0 C 70.792 0 77.591 4.434 77.591 11.527 C 77.591 18.03 72.862 23.795 65.324 23.795 C 58.674 23.795 53.058 18.621 53.058 11.527 C 53.058 6.059 57.787 0 65.324 0 Z M 92.814 0 C 99.169 0 104.785 4.877 104.785 11.527 C 104.785 18.03 99.908 23.795 92.814 23.795 C 86.459 23.795 80.843 19.213 80.843 11.527 C 80.843 6.059 85.277 0 92.814 0 Z M 120.451 0 C 126.658 0 132.57 4.729 132.57 11.527 C 132.57 18.03 127.545 23.646 120.451 23.646 C 113.505 23.646 108.332 18.621 108.332 11.527 C 108.332 6.207 112.766 0 120.451 0 Z M 65.324 2.069 C 59.856 2.069 55.275 6.65 55.274 11.527 C 55.274 16.7 59.56 21.43 65.324 21.43 C 70.497 21.43 75.227 17.291 75.227 11.527 C 75.226 6.207 70.201 2.069 65.324 2.069 Z M 92.814 1.921 C 87.642 1.921 83.06 5.911 83.06 11.527 C 83.06 16.7 86.902 21.43 92.666 21.43 C 97.987 21.43 102.421 17.291 102.421 11.527 C 102.421 5.912 97.396 1.921 92.814 1.921 Z M 120.451 2.069 C 115.426 2.069 110.549 6.059 110.549 11.527 C 110.549 16.257 114.096 21.43 120.155 21.43 C 125.328 21.43 130.501 17.439 130.501 11.527 C 130.501 6.207 125.771 2.069 120.451 2.069 Z" fill="currentColor" fill-rule="nonzero"></path>
</svg>