<svg width="567" height="164" viewBox="0 0 567 164" fill="none" xmlns="http://www.w3.org/2000/svg">
<path opacity="0.2" d="M65.7676 141.29C71.3837 141.29 76.8525 145.724 76.8525 152.227C76.8523 158.138 71.9744 162.571 65.4717 162.571C59.2647 162.571 54.3879 157.842 54.3877 152.227C54.3877 146.61 59.2648 141.438 65.7676 141.29ZM93.2578 141.438C98.5782 141.438 103.603 146.019 103.751 151.782C103.751 157.842 99.3172 162.571 92.8145 162.571C86.755 162.571 82.0254 158.137 82.0254 152.226C82.0255 147.496 85.5727 141.438 93.2578 141.438ZM120.451 141.29C126.067 141.29 131.684 145.133 131.684 152.227C131.683 157.843 127.249 162.571 120.155 162.571C113.505 162.571 109.515 157.842 109.515 152.227C109.515 146.61 114.244 141.438 120.451 141.29ZM65.7676 143.358C61.6294 143.358 56.6045 146.906 56.6045 152.227C56.6047 157.251 60.8904 160.798 65.4717 160.798C70.3487 160.798 74.6355 157.104 74.6357 152.227C74.6357 147.202 70.2014 143.358 65.7676 143.358ZM92.9619 143.358C88.5283 143.358 84.0949 146.905 84.0947 152.226C84.0947 156.659 87.9373 160.798 92.8145 160.798C98.2827 160.798 101.682 156.364 101.682 152.226C101.681 147.792 97.3956 143.358 92.9619 143.358ZM120.451 143.358C116.313 143.358 111.584 146.906 111.584 152.227C111.584 156.66 115.131 160.798 120.451 160.798C125.18 160.798 129.467 157.104 129.467 152.227C129.467 147.202 124.885 143.358 120.451 143.358ZM92.9619 117.791C98.2824 117.791 103.603 121.485 103.604 129.022C103.604 134.491 99.3172 139.516 92.8145 139.516C86.9029 139.516 82.0256 135.082 82.0254 129.171C82.0254 124.737 85.2768 118.53 92.9619 117.791ZM92.9619 120.008C88.2327 120.008 84.0949 123.85 84.0947 129.022C84.0947 133.308 87.9373 137.447 92.8145 137.447C97.9869 137.447 101.681 133.604 101.682 129.171C101.682 124.442 97.3957 120.008 92.9619 120.008ZM174.247 111.14C180.159 111.14 185.479 116.165 185.479 123.85C185.479 129.761 181.046 135.673 173.804 135.969C166.858 136.264 162.424 130.944 162.424 124.146C162.424 118.529 166.562 111.14 174.247 111.14ZM11.9717 111.14C18.3265 111.14 23.203 116.165 23.2031 124.293C23.2031 129.761 18.6217 135.969 11.3799 135.969C5.02487 135.969 0 131.239 0 124.293C0.000125083 118.677 4.87773 111.14 11.9717 111.14ZM11.3799 113.504C7.24173 113.504 2.5127 117.199 2.5127 124.146C2.51277 128.284 6.06004 133.899 11.9717 133.899C16.5531 133.899 21.1348 130.057 21.1348 124.293C21.1346 119.268 16.9959 113.504 11.3799 113.504ZM174.1 113.504C168.927 113.356 164.788 117.938 164.788 123.85C164.788 128.283 168.04 133.899 173.951 133.899C179.863 133.899 183.706 129.17 183.706 124.146C183.706 118.529 178.681 113.504 174.1 113.504ZM65.7676 94.7354C71.3837 94.7354 76.8525 99.0209 76.8525 104.933C76.8525 110.549 72.7138 116.165 65.7676 116.165C59.2648 116.165 54.3877 111.14 54.3877 104.933C54.3877 100.203 58.378 94.7354 65.7676 94.7354ZM93.2578 94.1436C98.5782 94.1436 103.603 98.134 103.604 104.637C103.604 110.253 99.3172 115.278 92.8145 115.278C86.755 115.278 82.0254 110.548 82.0254 104.637C82.0254 100.055 85.2771 94.1436 93.2578 94.1436ZM65.7676 96.6562C61.925 96.6563 56.6045 99.3166 56.6045 104.933C56.6045 109.957 60.8905 113.8 65.7676 113.8C70.4969 113.8 74.6357 110.253 74.6357 104.933C74.6357 100.203 70.2014 96.6562 65.7676 96.6562ZM92.9619 96.0645C89.1193 96.0645 84.0948 99.0207 84.0947 104.637C84.0947 108.332 87.6414 112.913 92.9619 112.913C98.2824 112.913 101.682 108.775 101.682 104.637C101.682 99.6118 97.1001 96.0645 92.9619 96.0645ZM174.1 83.7988C180.159 83.7989 185.479 88.6756 185.479 95.7695C185.479 101.977 181.045 107.149 173.951 107.149C167.301 107.445 162.424 102.272 162.424 95.7695C162.424 89.5622 166.858 83.7988 174.1 83.7988ZM11.9717 83.7988C18.1789 83.7989 23.3516 88.9711 23.3516 95.7695C23.3516 101.681 18.622 107.149 11.2324 107.149C5.32077 107.149 0.295898 102.568 0.295898 95.917C0.296085 90.0054 5.32114 83.7988 11.9717 83.7988ZM11.2324 85.8672C7.09426 85.8673 2.5127 89.4145 2.5127 95.7695C2.5127 100.203 6.05975 104.933 11.6758 104.933C17.2919 104.933 21.1348 100.942 21.1348 95.7695C21.1348 90.449 16.1096 85.8672 11.2324 85.8672ZM174.1 85.8672C169.223 85.8672 164.788 90.0055 164.788 95.4736C164.788 101.533 169.518 104.932 173.951 104.933C179.863 104.933 183.706 100.499 183.706 95.7695C183.706 90.1535 178.977 85.8673 174.1 85.8672ZM119.859 72.7139C126.658 72.7139 131.092 77.4432 131.24 82.7637C131.24 88.3798 126.953 93.1094 119.859 93.1094C113.357 93.4047 108.775 88.3797 108.775 82.7637C108.775 78.6256 112.175 72.7141 119.859 72.7139ZM65.7676 71.2363C71.0881 71.2363 77 75.0785 77 81.877C77 88.2319 71.9751 92.6659 65.6201 92.666C59.5606 92.666 54.3877 88.0842 54.3877 81.877C54.3877 77.4432 58.0825 71.2364 65.7676 71.2363ZM119.859 74.7832C115.721 74.7834 111.14 78.0345 111.14 82.7637C111.14 87.4929 115.13 91.0398 119.859 91.04C123.998 91.04 129.023 87.6408 129.023 82.7637C129.023 78.0344 124.884 74.7832 119.859 74.7832ZM65.7676 73.3047C61.6294 73.3048 56.6045 76.4087 56.6045 81.877C56.6045 86.9017 60.8903 90.5964 65.4717 90.5967C70.3488 90.5967 74.6357 86.9019 74.6357 81.877C74.6357 76.852 70.2014 73.3047 65.7676 73.3047ZM174.247 55.7178C180.159 55.7178 185.479 60.4471 185.479 67.9844C185.479 73.8961 181.045 79.8083 173.951 79.9561C167.301 80.2514 162.424 75.0782 162.424 67.9844C162.424 62.3683 166.71 55.7179 174.247 55.7178ZM11.9707 55.7178C18.178 55.57 23.2031 60.5947 23.2031 67.9844C23.2031 73.6005 18.1777 79.9551 11.2314 79.9551C4.8766 79.9548 0.147461 74.9301 0.147461 68.1318C0.147616 63.1069 4.5813 55.7179 11.9707 55.7178ZM174.1 57.9346C168.927 57.9346 164.788 62.0728 164.788 67.9844C164.788 72.4182 168.336 77.7393 174.1 77.7393C179.863 77.7392 183.706 73.0093 183.706 67.9844C183.706 62.3684 178.977 57.9347 174.1 57.9346ZM11.2314 57.9346C7.24114 57.9348 2.51172 61.334 2.51172 67.9844C2.51176 71.9747 5.91134 77.7382 11.9707 77.7383C16.7001 77.7383 21.1338 73.6002 21.1338 68.1318C21.1336 63.2548 16.9953 57.9346 11.2314 57.9346ZM120.155 49.6582C126.067 49.6582 131.092 53.5006 131.24 60.2988C131.24 65.0282 127.249 70.6445 119.859 70.6445C113.357 70.6443 108.775 66.2104 108.775 60.2988C108.776 56.1607 112.47 50.2494 120.155 49.6582ZM120.008 52.0225C115.722 52.0225 110.992 55.1264 110.992 60.2988C110.992 64.1414 114.539 68.8707 120.155 68.5752C124.589 68.5752 129.023 65.0287 129.023 60.4473C129.023 55.8658 124.885 52.0226 120.008 52.0225ZM174.1 27.6377C180.159 27.6378 185.479 32.5143 185.479 39.3125C185.479 45.6676 180.75 51.2842 173.951 51.2842C167.449 51.5795 162.424 46.4064 162.424 39.3125C162.424 33.6965 167.153 27.6377 174.1 27.6377ZM11.8232 27.6377C17.7348 27.6378 23.3504 32.3665 23.3506 39.3125C23.3506 45.2242 18.6211 51.2842 11.2314 51.2842C5.61549 51.284 0.147461 47.1456 0.147461 39.6084C0.147463 33.9923 5.02479 27.6377 11.8232 27.6377ZM92.9619 26.6025C99.317 26.6025 104.49 31.4799 104.49 37.835C104.49 43.451 100.204 49.0673 92.8145 49.0674C86.1638 49.0674 81.1387 44.0419 81.1387 37.5391C81.1387 32.8097 85.2769 26.6026 92.9619 26.6025ZM11.3799 29.8545C7.24177 29.8545 2.66032 33.401 2.66016 39.3125C2.66016 44.0418 6.65025 48.7714 11.5273 48.7715C16.7001 48.7715 21.1338 44.7808 21.1338 39.3125C21.1336 34.5833 16.9958 29.8546 11.3799 29.8545ZM174.1 29.8545C170.257 29.8545 164.788 32.8098 164.788 39.3125C164.788 44.0417 168.631 48.7712 173.951 48.7715C178.681 48.7715 183.706 45.2242 183.706 39.3125C183.706 33.9922 179.272 29.8546 174.1 29.8545ZM92.8145 28.6719C87.9373 28.6719 83.5029 32.2188 83.5029 37.835C83.503 42.5641 87.4936 46.7019 92.666 46.7021C97.9865 46.7021 102.273 42.4165 102.273 37.835C102.273 33.1057 97.9871 28.672 92.8145 28.6719ZM65.3242 0C70.7924 0 77.5905 4.43358 77.5908 11.5273C77.5908 18.0302 72.8616 23.7949 65.3242 23.7949C58.6736 23.7948 53.0576 18.6213 53.0576 11.5273C53.0579 6.05919 57.7871 9.80498e-05 65.3242 0ZM92.8145 0C99.1692 0.000249153 104.785 4.87709 104.785 11.5273C104.785 18.0301 99.9082 23.7947 92.8145 23.7949C86.4594 23.7949 80.8428 19.2126 80.8428 11.5273C80.843 6.05914 85.2773 0 92.8145 0ZM120.451 0C126.658 8.05804e-05 132.57 4.7292 132.57 11.5273C132.57 18.0302 127.545 23.6464 120.451 23.6465C113.505 23.6465 108.332 18.6214 108.332 11.5273C108.332 6.20692 112.766 0 120.451 0ZM65.3242 2.06934C59.8562 2.06944 55.2747 6.65042 55.2744 11.5273C55.2744 16.7 59.5604 21.4296 65.3242 21.4297C70.497 21.4297 75.2266 17.2913 75.2266 11.5273C75.2263 6.20704 70.2012 2.06934 65.3242 2.06934ZM92.8145 1.9209C87.6419 1.9209 83.0598 5.91148 83.0596 11.5273C83.0596 16.7 86.9022 21.4296 92.666 21.4297C97.9865 21.4297 102.421 17.2913 102.421 11.5273C102.421 5.91168 97.3958 1.92118 92.8145 1.9209ZM120.451 2.06934C115.426 2.06934 110.549 6.05926 110.549 11.5273C110.549 16.2567 114.096 21.4296 120.155 21.4297C125.328 21.4297 130.501 17.439 130.501 11.5273C130.501 6.20709 125.771 2.06942 120.451 2.06934Z" fill="white"/>
<path d="M65.4729 118.234C71.3845 118.234 74.9319 123.111 75.8186 127.101C76.4097 131.239 75.2275 133.9 73.1585 135.673C69.907 138.629 66.655 138.481 62.5169 138.333C56.6052 138.038 48.3292 144.836 48.9202 152.521C49.068 158.728 44.4859 163.163 37.8352 163.163C31.7759 163.162 27.4905 158.137 27.4905 152.817C27.6383 147.349 32.6628 141.88 39.0178 142.767L41.9739 143.063C48.6245 142.915 55.4231 135.525 54.9797 129.022C54.9799 122.371 60.1525 118.234 65.4729 118.234ZM120.746 118.234C127.249 118.234 131.683 123.849 131.092 129.761C130.501 136.264 138.482 144.392 145.871 142.914C153.261 142.176 158.581 147.496 158.581 153.408C158.581 158.728 154.148 163.162 147.941 163.163C141.438 163.163 137.299 158.433 137.152 152.817C137.743 147.792 135.23 143.654 131.831 140.994C128.137 138.333 125.476 137.89 122.225 138.333C115.426 139.22 110.697 134.195 110.402 128.579C110.402 123.11 114.835 118.234 120.746 118.234ZM147.35 28.0795C153.557 28.0795 158.434 32.8091 158.434 38.4252C158.434 42.2677 155.922 45.5189 152.966 47.2924C148.237 49.9527 149.419 56.4554 152.966 58.6723C156.809 61.1848 158.434 64.4368 158.434 67.9838C158.434 72.1219 155.626 75.3734 152.67 77.1469C148.532 79.3639 149.124 85.4232 152.966 87.6401C156.513 89.857 158.434 93.1087 158.434 96.6557C158.434 100.055 155.626 103.749 152.67 105.523C148.237 108.183 148.828 114.981 152.67 117.05C156.808 119.415 158.434 123.553 158.434 126.066C158.434 132.125 153.853 136.855 147.35 136.855C141.438 136.855 137.004 132.569 136.561 126.658C136.561 120.007 130.797 114.686 124.294 114.982L120.156 115.277C113.505 115.572 109.811 109.365 109.811 104.636C109.959 97.2466 101.239 91.0393 96.3616 91.6303L94.7356 91.9262C87.9373 92.8129 82.9129 87.1968 83.2083 80.9897C83.2083 76.5559 79.9568 72.1213 75.8186 70.0522C71.6805 67.9831 69.9066 68.8699 67.2463 69.1655C60.4479 69.7566 55.4225 63.8454 55.718 58.0815C55.718 50.8398 48.3292 45.6673 43.5999 47.5883C40.0529 49.8052 39.4615 56.4553 44.1907 59.1157C47.7377 61.4803 49.3635 64.5846 49.3635 67.9838C49.3634 72.1219 47.1465 75.3734 44.1907 77.1469C39.4614 79.3638 40.3481 86.014 44.1907 87.7875C47.4421 89.8566 49.3635 93.4043 49.3635 96.6557C49.3634 100.498 47.1467 103.454 44.4866 105.375C39.4616 108.183 39.4616 114.834 44.4866 117.642C47.4422 119.416 49.3635 122.962 49.3635 126.066C49.3635 131.83 45.0773 136.855 38.5745 136.855C32.9584 136.855 27.9338 131.829 27.9338 125.327C28.2296 121.484 30.5938 118.233 32.9583 116.755C37.0964 114.686 37.3917 108.183 32.6624 105.375C29.1157 103.454 27.6384 100.055 27.4905 97.0991C27.4905 93.4043 30.0025 89.857 32.9583 88.0834C37.392 86.0143 37.0964 79.5116 32.9583 77.1469C29.7069 75.3734 27.4906 71.5308 27.4905 67.9838C27.4905 63.8456 30.0024 60.4458 32.9583 58.6723C36.8009 56.751 37.3917 49.6578 32.6624 46.9975C29.1155 45.2239 27.4905 41.676 27.4905 37.8334C27.7863 32.2177 32.8105 28.0797 38.2786 28.0795C45.3726 28.0795 49.5117 34.5829 49.2161 38.7211C49.0687 44.6327 56.3101 51.1355 62.8128 49.6576C71.089 48.4754 76.1142 54.9781 75.8186 61.0375C75.8188 67.5403 83.5037 73.5997 88.5286 73.3041L91.1887 73.0082C98.2827 72.4171 103.012 78.0334 102.421 84.2407C102.421 91.1868 111.14 97.246 116.609 96.5073L119.861 96.0639C125.92 96.064 129.615 100.793 129.91 105.227C129.615 108.183 130.501 109.957 131.831 112.026C134.639 116.46 140.551 118.528 143.655 115.277C146.019 112.617 145.872 107.74 141.438 105.375C138.482 103.75 136.413 100.203 136.413 96.6557C136.413 93.1087 138.778 89.8569 141.734 88.0834C145.872 86.0144 146.759 79.8069 142.03 76.851C138.187 74.7819 136.561 70.6438 136.561 67.6879C136.561 63.2542 139.074 60.0024 142.03 58.2289C146.167 55.7164 145.872 49.2144 141.734 46.9975C138.187 45.224 136.561 41.6766 136.561 38.4252C136.561 32.2179 142.62 28.0795 147.35 28.0795ZM27.342 10.936C27.7854 5.91102 32.3672 0.590578 39.0178 0.886163C44.7816 0.886341 49.9537 6.05856 49.3626 11.5268L49.2151 13.891C49.0673 18.3247 52.1711 22.7588 55.718 25.1235C59.8562 27.7837 61.9256 27.1925 63.8469 26.8969C71.9753 26.3059 76.9998 32.5133 76.7044 38.1293C76.4088 46.8488 84.0938 52.0213 88.5276 51.726L92.3704 51.4311C98.7254 52.0222 102.569 57.3424 102.569 62.0717C102.569 67.6877 98.2825 71.3831 93.4055 71.3832C86.7549 71.3832 82.9124 65.3232 82.9124 60.2983C83.2079 54.9778 79.6602 50.396 75.8176 48.1791C71.0888 45.5192 69.3152 46.9973 66.803 46.9975C63.4038 47.8842 58.9691 46.258 56.7522 42.8588C54.5355 39.9031 54.8313 37.5382 54.8313 35.0258C54.8313 28.0796 47.1456 21.8722 41.9729 22.02L37.9827 22.1684C31.4801 22.1682 27.0466 16.2563 27.342 10.936ZM147.941 0.886163C153.557 0.886226 158.433 5.31993 158.581 11.3793C158.581 17.291 154.739 22.7599 145.871 22.0209C137.595 22.1688 129.91 31.3313 130.205 37.5385C130.205 43.7457 125.181 47.2933 119.565 47.2934C114.54 47.2934 109.958 44.0416 109.958 37.8344C109.958 33.1051 115.13 28.0804 121.633 28.6713C129.909 28.6713 137.743 20.2471 136.561 12.1186C136.413 5.32013 142.029 0.590578 147.941 0.886163Z" fill="url(#paint0_linear_1_800)"/>
<path d="M525.674 139.574C517.757 139.574 510.762 137.785 504.689 134.206C498.616 130.519 493.844 125.476 490.374 119.078C486.903 112.571 485.168 105.088 485.168 96.6286C485.168 88.1696 486.903 80.7408 490.374 74.3423C493.844 67.8354 498.616 62.7925 504.689 59.2137C510.762 55.6349 517.757 53.8455 525.674 53.8455C533.699 53.8455 540.748 55.6349 546.821 59.2137C552.894 62.7925 557.666 67.8354 561.137 74.3423C564.607 80.7408 566.342 88.1696 566.342 96.6286C566.342 105.088 564.607 112.571 561.137 119.078C557.666 125.476 552.894 130.519 546.821 134.206C540.748 137.785 533.699 139.574 525.674 139.574ZM525.674 126.398C530.988 126.398 535.597 125.205 539.501 122.819C543.514 120.325 546.659 116.854 548.936 112.408C551.213 107.853 552.352 102.593 552.352 96.6286C552.352 90.5555 551.213 85.3499 548.936 81.0119C546.659 76.5655 543.514 73.1494 539.501 70.7635C535.597 68.2692 530.988 67.022 525.674 67.022C520.468 67.022 515.859 68.2692 511.846 70.7635C507.834 73.1494 504.689 76.5655 502.411 81.0119C500.134 85.3499 498.995 90.5555 498.995 96.6286C498.995 102.593 500.134 107.853 502.411 112.408C504.689 116.854 507.834 120.325 511.846 122.819C515.859 125.205 520.468 126.398 525.674 126.398Z" fill="white"/>
<path d="M434.547 137.46V55.9602H447.886V78.8972L443.982 76.4571C445.934 70.167 449.567 65.1784 454.881 61.4911C460.195 57.8038 466.16 55.9602 472.775 55.9602H481.072V68.9741H470.66C466.214 68.9741 462.31 70.0586 458.948 72.2276C455.694 74.2881 453.092 77.2162 451.14 81.0119C449.296 84.6992 448.374 89.0372 448.374 94.0258V137.46H434.547Z" fill="white"/>
<path d="M418.209 55.9602V137.46H404.869V114.523L408.774 116.963C407.255 121.518 404.869 125.53 401.616 129.001C398.471 132.363 394.675 134.965 390.229 136.809C385.891 138.653 381.173 139.574 376.076 139.574C370.22 139.574 365.014 138.327 360.46 135.833C355.905 133.339 352.272 129.651 349.56 124.771C346.958 119.782 345.656 113.655 345.656 106.389V55.9602H359.484V102.81C359.484 108.666 360.351 113.33 362.086 116.8C363.93 120.162 366.316 122.602 369.244 124.12C372.28 125.53 375.697 126.235 379.492 126.235C383.722 126.235 387.68 125.205 391.368 123.144C395.163 121.084 398.254 118.047 400.64 114.035C403.134 110.022 404.381 105.088 404.381 99.2314V55.9602H418.209Z" fill="white"/>
<path d="M315.147 137.46L240.479 27.4923V23.5881H254.307L328.974 133.555V137.46H315.147ZM240.479 137.46V23.5881H254.307V137.46H240.479ZM315.147 137.46V23.5881H328.974V137.46H315.147Z" fill="white"/>
<defs>
<linearGradient id="paint0_linear_1_800" x1="15.2742" y1="-12.6354" x2="205.862" y2="126.638" gradientUnits="userSpaceOnUse">
<stop stop-color="#9CC0FF"/>
<stop offset="0.5" stop-color="#BAA4FF"/>
<stop offset="1" stop-color="#FFB6D9"/>
</linearGradient>
</defs>
</svg>
