<svg xmlns="http://www.w3.org/2000/svg" width="131.253" height="162.289" viewBox="0 0 131.253 162.289" fill="none">
  <path d="M 38.145 117.361 C 44.056 117.361 47.604 122.238 48.491 126.228 C 49.082 130.366 47.898 133.027 45.829 134.8 C 42.578 137.756 39.327 137.608 35.189 137.46 C 29.277 137.165 21.001 143.964 21.592 151.649 C 21.74 157.856 17.158 162.289 10.507 162.289 C 4.448 162.289 0.162 157.264 0.162 151.944 C 0.31 146.476 5.335 141.007 11.69 141.894 L 14.646 142.19 C 21.296 142.042 28.095 134.653 27.652 128.15 C 27.652 121.499 32.824 117.361 38.145 117.361 Z M 93.418 117.361 C 99.921 117.361 104.355 122.977 103.764 128.888 C 103.173 135.391 111.154 143.52 118.543 142.042 C 125.933 141.303 131.253 146.624 131.253 152.536 C 131.253 157.856 126.82 162.289 120.613 162.289 C 114.11 162.289 109.971 157.56 109.824 151.944 C 110.415 146.919 107.902 142.781 104.503 140.121 C 100.809 137.46 98.148 137.017 94.897 137.46 C 88.098 138.347 83.369 133.322 83.074 127.706 C 83.074 122.238 87.507 117.361 93.418 117.361 Z M 120.022 27.206 C 126.229 27.207 131.106 31.936 131.106 37.552 C 131.106 41.395 128.594 44.646 125.638 46.419 C 120.909 49.08 122.091 55.583 125.638 57.8 C 129.48 60.313 131.106 63.564 131.106 67.111 C 131.106 71.249 128.298 74.5 125.342 76.274 C 121.204 78.491 121.795 84.55 125.638 86.767 C 129.185 88.984 131.106 92.236 131.106 95.783 C 131.106 99.182 128.298 102.876 125.342 104.65 C 120.908 107.31 121.499 114.109 125.342 116.178 C 129.48 118.543 131.106 122.68 131.106 125.193 C 131.106 131.252 126.525 135.982 120.022 135.982 C 114.11 135.982 109.676 131.696 109.233 125.785 C 109.233 119.134 103.469 113.813 96.966 114.109 L 92.827 114.405 C 86.177 114.7 82.483 108.492 82.483 103.763 C 82.63 96.374 73.911 90.166 69.033 90.757 L 67.407 91.053 C 60.609 91.94 55.585 86.324 55.88 80.117 C 55.88 75.683 52.628 71.249 48.491 69.18 C 44.352 67.111 42.578 67.998 39.918 68.293 C 33.12 68.885 28.094 62.972 28.39 57.208 C 28.39 49.967 21.001 44.794 16.272 46.715 C 12.725 48.932 12.133 55.583 16.863 58.244 C 20.409 60.608 22.035 63.712 22.035 67.111 C 22.035 71.249 19.818 74.5 16.863 76.274 C 12.133 78.491 13.02 85.142 16.863 86.915 C 20.114 88.985 22.035 92.531 22.035 95.783 C 22.035 99.625 19.819 102.581 17.158 104.502 C 12.134 107.31 12.134 113.961 17.158 116.769 C 20.114 118.542 22.035 122.089 22.035 125.193 C 22.035 130.957 17.749 135.982 11.246 135.982 C 5.63 135.982 0.606 130.957 0.606 124.455 C 0.901 120.612 3.265 117.36 5.63 115.882 C 9.768 113.813 10.064 107.31 5.334 104.502 C 1.787 102.581 0.31 99.182 0.162 96.226 C 0.162 92.531 2.674 88.984 5.63 87.21 C 10.064 85.141 9.768 78.639 5.63 76.274 C 2.379 74.5 0.162 70.658 0.162 67.111 C 0.162 62.973 2.674 59.574 5.63 57.8 C 9.473 55.879 10.064 48.785 5.334 46.124 C 1.787 44.351 0.162 40.804 0.162 36.961 C 0.458 31.345 5.482 27.207 10.95 27.206 C 18.045 27.206 22.183 33.71 21.887 37.848 C 21.739 43.76 28.982 50.263 35.485 48.785 C 43.761 47.602 48.786 54.105 48.491 60.164 C 48.491 66.667 56.176 72.727 61.2 72.431 L 63.861 72.136 C 70.954 71.545 75.684 77.161 75.093 83.368 C 75.093 90.314 83.812 96.374 89.281 95.635 L 92.532 95.192 C 98.592 95.192 102.287 99.921 102.582 104.355 C 102.287 107.31 103.173 109.084 104.503 111.153 C 107.311 115.586 113.223 117.656 116.326 114.405 C 118.691 111.744 118.543 106.867 114.11 104.502 C 111.154 102.877 109.085 99.33 109.085 95.783 C 109.085 92.236 111.45 88.984 114.406 87.21 C 118.544 85.141 119.431 78.934 114.701 75.978 C 110.859 73.909 109.233 69.771 109.233 66.815 C 109.233 62.381 111.746 59.13 114.701 57.357 C 118.84 54.844 118.544 48.341 114.406 46.124 C 110.859 44.351 109.233 40.804 109.233 37.552 C 109.233 31.345 115.292 27.206 120.022 27.206 Z M 0.014 10.063 C 0.457 5.038 5.039 -0.282 11.69 0.013 C 17.453 0.013 22.625 5.186 22.034 10.654 L 21.887 13.019 C 21.739 17.453 24.843 21.887 28.39 24.251 C 32.528 26.912 34.598 26.32 36.519 26.025 C 44.647 25.434 49.672 31.64 49.376 37.256 C 49.081 45.976 56.766 51.149 61.199 50.854 L 65.042 50.558 C 71.397 51.149 75.24 56.469 75.241 61.199 C 75.241 66.815 70.954 70.51 66.077 70.51 C 59.427 70.51 55.583 64.45 55.583 59.425 C 55.879 54.105 52.332 49.524 48.49 47.307 C 43.76 44.647 41.986 46.124 39.474 46.124 C 36.075 47.011 31.641 45.385 29.424 41.986 C 27.208 39.03 27.503 36.665 27.503 34.153 C 27.503 27.207 19.817 20.999 14.645 21.147 L 10.655 21.295 C 4.152 21.295 -0.282 15.383 0.014 10.063 Z M 120.613 0.013 C 126.228 0.013 131.105 4.447 131.253 10.506 C 131.253 16.418 127.411 21.887 118.543 21.148 C 110.267 21.296 102.582 30.458 102.877 36.665 C 102.877 42.873 97.853 46.42 92.237 46.42 C 87.212 46.42 82.63 43.169 82.63 36.961 C 82.63 32.232 87.802 27.207 94.305 27.798 C 102.581 27.798 110.415 19.374 109.233 11.246 C 109.085 4.447 114.701 -0.282 120.613 0.013 Z" fill="currentColor" fill-rule="nonzero"></path>
</svg>