<svg width="1092" height="279" viewBox="0 0 1092 279" fill="none" xmlns="http://www.w3.org/2000/svg">
<mask id="mask0_1240_147" style="mask-type:alpha" maskUnits="userSpaceOnUse" x="0" y="0" width="1092" height="279">
<rect width="1091.64" height="278.198" fill="#D9D9D9"/>
</mask>
<g mask="url(#mask0_1240_147)">
<mask id="path-2-outside-1_1240_147" maskUnits="userSpaceOnUse" x="0.958984" y="0.88623" width="1090" height="390" fill="black">
<rect fill="white" x="0.958984" y="0.88623" width="1090" height="390"/>
<path d="M954.101 102.903C980.893 102.903 1004.43 108.877 1024.7 120.825C1044.98 132.773 1060.91 149.61 1072.5 171.333C1084.08 192.695 1089.88 217.497 1089.88 245.738C1089.88 273.979 1084.08 298.962 1072.5 320.686C1060.91 342.048 1044.98 358.884 1024.7 371.194C1004.43 383.142 980.893 389.117 954.101 389.117C927.67 389.117 904.317 383.142 884.041 371.194C863.765 358.884 847.834 342.048 836.248 320.686C824.662 298.962 818.869 273.979 818.869 245.738C818.869 217.497 824.662 192.695 836.248 171.333C847.834 149.61 863.765 132.773 884.041 120.825C904.317 108.877 927.67 102.903 954.101 102.903ZM399.263 266.375C399.263 285.927 402.16 301.496 407.953 313.083C414.108 324.306 422.073 332.453 431.849 337.522C441.986 342.229 453.392 344.582 466.064 344.582C480.185 344.582 493.401 341.142 505.711 334.263C518.383 327.384 528.702 317.246 536.667 303.849C544.994 290.453 549.158 273.979 549.158 254.427V109.963H595.322V382.056H550.788V340.215C547.563 344.996 543.943 349.53 539.926 353.815C529.426 365.039 516.754 373.728 501.909 379.883C487.427 386.038 471.676 389.116 454.659 389.116C435.108 389.116 417.728 384.952 402.521 376.625C387.315 368.297 375.185 355.987 366.134 339.694C357.444 323.039 353.1 302.582 353.1 278.324V109.963H399.263V266.375ZM48.1221 1.88623L251.242 301.034V1.88623H297.405V382.056H251.242L48.1221 82.9077V382.056H1.95898V1.88623H48.1221ZM694.401 151.484C700.631 142.595 708.415 134.909 717.755 128.428C735.496 116.118 755.41 109.962 777.496 109.962H805.193V153.411H770.436C755.591 153.411 742.556 157.032 731.332 164.273C720.47 171.152 711.781 180.928 705.264 193.6C699.109 205.91 696.03 220.393 696.03 237.048V382.056H649.867V109.962H694.401V151.484ZM954.101 146.894C936.722 146.894 921.334 151.058 907.938 159.385C894.541 167.351 884.041 178.755 876.438 193.6C868.834 208.083 865.032 225.462 865.032 245.738C865.032 265.651 868.834 283.212 876.438 298.418C884.041 313.263 894.541 324.85 907.938 333.177C921.334 341.143 936.722 345.125 954.101 345.125C971.842 345.125 987.23 341.143 1000.26 333.177C1013.66 324.85 1024.16 313.263 1031.76 298.418C1039.37 283.212 1043.17 265.651 1043.17 245.738C1043.17 225.462 1039.37 208.083 1031.76 193.6C1024.16 178.756 1013.66 167.351 1000.26 159.385C987.23 151.058 971.842 146.894 954.101 146.894Z"/>
</mask>
<path d="M954.101 102.903V101.903V101.903V102.903ZM1024.7 120.825L1025.21 119.963V119.963L1024.7 120.825ZM1072.5 171.333L1071.61 171.804L1071.62 171.81L1072.5 171.333ZM1089.88 245.738H1090.88V245.738H1089.88ZM1072.5 320.686L1073.38 321.163L1073.38 321.157L1072.5 320.686ZM1024.7 371.194L1025.21 372.055L1025.22 372.049L1024.7 371.194ZM954.101 389.117V390.117V390.117V389.117ZM884.041 371.194L883.522 372.049L883.533 372.055L884.041 371.194ZM836.248 320.686L835.366 321.157L835.369 321.163L836.248 320.686ZM818.869 245.738H817.869V245.738H818.869ZM836.248 171.333L837.127 171.81L837.13 171.804L836.248 171.333ZM884.041 120.825L883.533 119.963V119.963L884.041 120.825ZM407.953 313.083L407.059 313.53L407.067 313.547L407.076 313.563L407.953 313.083ZM431.849 337.522L431.388 338.41L431.408 338.42L431.428 338.429L431.849 337.522ZM466.064 344.582V345.582V345.582V344.582ZM505.711 334.263L505.234 333.384L505.223 333.39L505.711 334.263ZM536.667 303.849L535.818 303.321L535.812 303.33L535.807 303.338L536.667 303.849ZM549.158 109.963V108.963H548.158V109.963H549.158ZM595.322 109.963H596.322V108.963H595.322V109.963ZM595.322 382.056V383.056H596.322V382.056H595.322ZM550.788 382.056H549.788V383.056H550.788V382.056ZM550.788 340.215H551.788V336.945L549.959 339.656L550.788 340.215ZM539.926 353.815L539.196 353.131L539.195 353.132L539.926 353.815ZM501.909 379.883L501.526 378.96L501.518 378.963L501.909 379.883ZM454.659 389.116V390.116V390.116V389.116ZM402.521 376.625L402.041 377.502V377.502L402.521 376.625ZM366.134 339.694L365.247 340.156L365.253 340.168L365.26 340.18L366.134 339.694ZM353.1 109.963V108.963H352.1V109.963H353.1ZM399.263 109.963H400.263V108.963H399.263V109.963ZM48.1221 1.88623L48.9494 1.32449L48.6518 0.88623H48.1221V1.88623ZM251.242 301.034L250.415 301.595L252.242 304.287V301.034H251.242ZM251.242 1.88623V0.88623H250.242V1.88623H251.242ZM297.405 1.88623H298.405V0.88623H297.405V1.88623ZM297.405 382.056V383.056H298.405V382.056H297.405ZM251.242 382.056L250.415 382.618L250.712 383.056H251.242V382.056ZM48.1221 82.9077L48.9494 82.346L47.1221 79.6548V82.9077H48.1221ZM48.1221 382.056V383.056H49.1221V382.056H48.1221ZM1.95898 382.056H0.958984V383.056H1.95898V382.056ZM1.95898 1.88623V0.88623H0.958984V1.88623H1.95898ZM694.401 151.484H693.401V154.653L695.22 152.058L694.401 151.484ZM717.755 128.428L717.185 127.607V127.607L717.755 128.428ZM805.193 109.962H806.193V108.962H805.193V109.962ZM805.193 153.411V154.411H806.193V153.411H805.193ZM731.332 164.273L731.867 165.118L731.874 165.113L731.332 164.273ZM705.264 193.6L704.374 193.143L704.369 193.153L705.264 193.6ZM696.03 382.056V383.056H697.03V382.056H696.03ZM649.867 382.056H648.867V383.056H649.867V382.056ZM649.867 109.962V108.962H648.867V109.962H649.867ZM694.401 109.962H695.401V108.962H694.401V109.962ZM954.101 146.894V145.894V145.894V146.894ZM907.938 159.385L908.449 160.245L908.457 160.24L908.465 160.235L907.938 159.385ZM876.438 193.6L877.323 194.065L877.328 194.056L876.438 193.6ZM865.032 245.738H864.032V245.738H865.032ZM876.438 298.418L875.543 298.866L875.547 298.874L876.438 298.418ZM907.938 333.177L907.41 334.027L907.418 334.032L907.426 334.037L907.938 333.177ZM954.101 345.125V346.125V346.125V345.125ZM1000.26 333.177L1000.79 334.031L1000.79 334.027L1000.26 333.177ZM1031.76 298.418L1032.65 298.874L1032.66 298.866L1031.76 298.418ZM1043.17 245.738H1044.17V245.738H1043.17ZM1031.76 193.6L1030.87 194.056L1030.88 194.065L1031.76 193.6ZM1000.26 159.385L999.726 160.228L999.74 160.237L999.754 160.245L1000.26 159.385ZM954.101 102.903V103.903C980.74 103.903 1004.09 109.841 1024.2 121.686L1024.7 120.825L1025.21 119.963C1004.76 107.912 981.047 101.903 954.101 101.903V102.903ZM1024.7 120.825L1024.2 121.686C1044.31 133.537 1060.11 150.235 1071.61 171.804L1072.5 171.333L1073.38 170.863C1061.71 148.984 1045.65 132.009 1025.21 119.963L1024.7 120.825ZM1072.5 171.333L1071.62 171.81C1083.11 193.004 1088.88 217.636 1088.88 245.738H1089.88H1090.88C1090.88 217.357 1085.05 192.387 1073.38 170.857L1072.5 171.333ZM1089.88 245.738H1088.88C1088.88 273.839 1083.11 298.656 1071.61 320.215L1072.5 320.686L1073.38 321.157C1085.05 299.268 1090.88 274.119 1090.88 245.738H1089.88ZM1072.5 320.686L1071.62 320.209C1060.11 341.419 1044.31 358.123 1024.19 370.339L1024.7 371.194L1025.22 372.049C1045.65 359.644 1061.71 342.676 1073.38 321.163L1072.5 320.686ZM1024.7 371.194L1024.2 370.332C1004.09 382.178 980.74 388.117 954.101 388.117V389.117V390.117C981.047 390.117 1004.76 384.106 1025.21 372.055L1024.7 371.194ZM954.101 389.117V388.117C927.826 388.117 904.652 382.179 884.549 370.332L884.041 371.194L883.533 372.055C903.981 384.105 927.514 390.117 954.101 390.117V389.117ZM884.041 371.194L884.56 370.339C864.44 358.123 848.631 341.419 837.127 320.209L836.248 320.686L835.369 321.163C847.037 342.676 863.091 359.644 883.522 372.049L884.041 371.194ZM836.248 320.686L837.13 320.215C825.632 298.656 819.869 273.839 819.869 245.738H818.869H817.869C817.869 274.119 823.692 299.268 835.366 321.157L836.248 320.686ZM818.869 245.738H819.869C819.869 217.636 825.632 193.004 837.127 171.81L836.248 171.333L835.369 170.857C823.692 192.387 817.869 217.357 817.869 245.738H818.869ZM836.248 171.333L837.13 171.804C848.634 150.235 864.439 133.537 884.549 121.686L884.041 120.825L883.533 119.963C863.092 132.009 847.034 148.984 835.366 170.863L836.248 171.333ZM884.041 120.825L884.549 121.686C904.652 109.84 927.826 103.903 954.101 103.903V102.903V101.903C927.514 101.903 903.981 107.914 883.533 119.963L884.041 120.825ZM399.263 266.375H398.263C398.263 286.01 401.17 301.752 407.059 313.53L407.953 313.083L408.848 312.635C403.15 301.241 400.263 285.844 400.263 266.375H399.263ZM407.953 313.083L407.076 313.563C413.311 324.932 421.409 333.235 431.388 338.41L431.849 337.522L432.309 336.634C422.737 331.671 414.906 323.68 408.83 312.602L407.953 313.083ZM431.849 337.522L431.428 338.429C441.714 343.205 453.266 345.582 466.064 345.582V344.582V343.582C453.518 343.582 442.259 341.253 432.27 336.615L431.849 337.522ZM466.064 344.582V345.582C480.356 345.582 493.739 342.099 506.199 335.136L505.711 334.263L505.223 333.39C493.062 340.186 480.014 343.582 466.064 343.582V344.582ZM505.711 334.263L506.188 335.142C519.031 328.17 529.477 317.898 537.527 304.36L536.667 303.849L535.807 303.338C527.926 316.593 517.735 326.598 505.234 333.384L505.711 334.263ZM536.667 303.849L537.516 304.377C545.963 290.788 550.158 274.121 550.158 254.427H549.158H548.158C548.158 273.837 544.026 290.117 535.818 303.321L536.667 303.849ZM549.158 254.427H550.158V109.963H549.158H548.158V254.427H549.158ZM549.158 109.963V110.963H595.322V109.963V108.963H549.158V109.963ZM595.322 109.963H594.322V382.056H595.322H596.322V109.963H595.322ZM595.322 382.056V381.056H550.788V382.056V383.056H595.322V382.056ZM550.788 382.056H551.788V340.215H550.788H549.788V382.056H550.788ZM550.788 340.215L549.959 339.656C546.764 344.392 543.178 348.884 539.196 353.131L539.926 353.815L540.655 354.499C544.709 350.175 548.362 345.6 551.617 340.775L550.788 340.215ZM539.926 353.815L539.195 353.132C528.797 364.247 516.245 372.856 501.526 378.96L501.909 379.883L502.292 380.807C517.262 374.6 530.055 365.831 540.656 354.498L539.926 353.815ZM501.909 379.883L501.518 378.963C487.169 385.061 471.553 388.116 454.659 388.116V389.116V390.116C471.8 390.116 487.684 387.016 502.3 380.804L501.909 379.883ZM454.659 389.116V388.116C435.254 388.116 418.043 383.984 403.002 375.747L402.521 376.625L402.041 377.502C417.413 385.92 434.962 390.116 454.659 390.116V389.116ZM402.521 376.625L403.002 375.747C387.973 367.517 375.975 355.349 367.008 339.208L366.134 339.694L365.26 340.18C374.396 356.625 386.656 369.077 402.041 377.502L402.521 376.625ZM366.134 339.694L367.02 339.231C358.424 322.755 354.1 302.466 354.1 278.324H353.1H352.1C352.1 302.698 356.465 323.323 365.247 340.156L366.134 339.694ZM353.1 278.324H354.1V109.963H353.1H352.1V278.324H353.1ZM353.1 109.963V110.963H399.263V109.963V108.963H353.1V109.963ZM399.263 109.963H398.263V266.375H399.263H400.263V109.963H399.263ZM48.1221 1.88623L47.2948 2.44797L250.415 301.595L251.242 301.034L252.07 300.472L48.9494 1.32449L48.1221 1.88623ZM251.242 301.034H252.242V1.88623H251.242H250.242V301.034H251.242ZM251.242 1.88623V2.88623H297.405V1.88623V0.88623H251.242V1.88623ZM297.405 1.88623H296.405V382.056H297.405H298.405V1.88623H297.405ZM297.405 382.056V381.056H251.242V382.056V383.056H297.405V382.056ZM251.242 382.056L252.07 381.494L48.9494 82.346L48.1221 82.9077L47.2948 83.4695L250.415 382.618L251.242 382.056ZM48.1221 82.9077H47.1221V382.056H48.1221H49.1221V82.9077H48.1221ZM48.1221 382.056V381.056H1.95898V382.056V383.056H48.1221V382.056ZM1.95898 382.056H2.95898V1.88623H1.95898H0.958984V382.056H1.95898ZM1.95898 1.88623V2.88623H48.1221V1.88623V0.88623H1.95898V1.88623ZM694.401 151.484L695.22 152.058C701.379 143.27 709.077 135.667 718.325 129.25L717.755 128.428L717.185 127.607C707.752 134.152 699.883 141.92 693.582 150.91L694.401 151.484ZM717.755 128.428L718.325 129.25C735.895 117.059 755.609 110.962 777.496 110.962V109.962V108.962C755.211 108.962 735.097 115.177 717.185 127.607L717.755 128.428ZM777.496 109.962V110.962H805.193V109.962V108.962H777.496V109.962ZM805.193 109.962H804.193V153.411H805.193H806.193V109.962H805.193ZM805.193 153.411V152.411H770.436V153.411V154.411H805.193V153.411ZM770.436 153.411V152.411C755.421 152.411 742.193 156.076 730.79 163.433L731.332 164.273L731.874 165.113C742.919 157.988 755.761 154.411 770.436 154.411V153.411ZM731.332 164.273L730.797 163.428C719.769 170.413 710.964 180.33 704.374 193.143L705.264 193.6L706.153 194.057C712.598 181.526 721.172 171.892 731.867 165.118L731.332 164.273ZM705.264 193.6L704.369 193.153C698.132 205.628 695.03 220.27 695.03 237.048H696.03H697.03C697.03 220.516 700.086 206.193 706.158 194.047L705.264 193.6ZM696.03 237.048H695.03V382.056H696.03H697.03V237.048H696.03ZM696.03 382.056V381.056H649.867V382.056V383.056H696.03V382.056ZM649.867 382.056H650.867V109.962H649.867H648.867V382.056H649.867ZM649.867 109.962V110.962H694.401V109.962V108.962H649.867V109.962ZM694.401 109.962H693.401V151.484H694.401H695.401V109.962H694.401ZM954.101 146.894V145.894C936.555 145.894 920.98 150.1 907.41 158.536L907.938 159.385L908.465 160.235C921.687 152.015 936.888 147.894 954.101 147.894V146.894ZM907.938 159.385L907.426 158.526C893.857 166.594 883.23 178.144 875.547 193.144L876.438 193.6L877.328 194.056C884.851 179.367 895.225 168.107 908.449 160.245L907.938 159.385ZM876.438 193.6L875.552 193.135C867.858 207.792 864.032 225.338 864.032 245.738H865.032H866.032C866.032 225.586 869.811 208.374 877.323 194.065L876.438 193.6ZM865.032 245.738H864.032C864.032 265.78 867.859 283.498 875.543 298.866L876.438 298.418L877.332 297.971C869.809 282.925 866.032 265.523 866.032 245.738H865.032ZM876.438 298.418L875.547 298.874C883.229 313.871 893.85 325.598 907.41 334.027L907.938 333.177L908.465 332.328C895.232 324.102 884.853 312.655 877.328 297.963L876.438 298.418ZM907.938 333.177L907.426 334.037C920.995 342.104 936.563 346.125 954.101 346.125V345.125V344.125C936.88 344.125 921.673 340.181 908.449 332.318L907.938 333.177ZM954.101 345.125V346.125C971.996 346.125 987.571 342.107 1000.79 334.031L1000.26 333.177L999.743 332.324C986.89 340.179 971.688 344.125 954.101 344.125V345.125ZM1000.26 333.177L1000.79 334.027C1014.35 325.598 1024.97 313.871 1032.65 298.874L1031.76 298.418L1030.87 297.963C1023.35 312.655 1012.97 324.102 999.737 332.328L1000.26 333.177ZM1031.76 298.418L1032.66 298.866C1040.34 283.498 1044.17 265.78 1044.17 245.738H1043.17H1042.17C1042.17 265.523 1038.39 282.925 1030.87 297.971L1031.76 298.418ZM1043.17 245.738H1044.17C1044.17 225.338 1040.34 207.792 1032.65 193.135L1031.76 193.6L1030.88 194.065C1038.39 208.374 1042.17 225.586 1042.17 245.738H1043.17ZM1031.76 193.6L1032.65 193.144C1024.97 178.145 1014.35 166.594 1000.78 158.526L1000.26 159.385L999.754 160.245C1012.98 168.107 1023.35 179.367 1030.87 194.056L1031.76 193.6ZM1000.26 159.385L1000.8 158.543C987.585 150.098 972.004 145.894 954.101 145.894V146.894V147.894C971.68 147.894 986.875 152.018 999.726 160.228L1000.26 159.385Z" fill="black" fill-opacity="0.11" mask="url(#path-2-outside-1_1240_147)"/>
</g>
</svg>
