<svg width="196" height="57" viewBox="0 0 196 57" fill="none" xmlns="http://www.w3.org/2000/svg">
<path d="M22.7559 48.8848C24.6989 48.8848 26.5908 50.4191 26.5908 52.6689C26.5907 54.7142 24.9032 56.248 22.6533 56.248C20.5058 56.248 18.8185 54.6119 18.8184 52.6689C18.8184 50.7258 20.5059 48.9359 22.7559 48.8848ZM32.2676 48.9355C34.1082 48.9358 35.8463 50.5215 35.8975 52.5156C35.8973 54.612 34.3631 56.248 32.1133 56.248C30.0171 56.2478 28.381 54.714 28.3809 52.6689C28.3809 51.0326 29.6086 48.9355 32.2676 48.9355ZM41.6768 48.8848C43.6198 48.8849 45.5625 50.2146 45.5625 52.6689C45.5624 54.612 44.0286 56.248 41.5742 56.248C39.2733 56.248 37.8927 54.612 37.8926 52.6689C37.8926 50.7258 39.5291 48.9359 41.6768 48.8848ZM22.7559 49.6006C21.3241 49.6006 19.585 50.8281 19.585 52.6689C19.5851 54.4074 21.0683 55.6347 22.6533 55.6348C24.3407 55.6348 25.8241 54.3563 25.8242 52.6689C25.8242 50.9304 24.2899 49.6007 22.7559 49.6006ZM32.165 49.6006C30.631 49.6006 29.0967 50.8281 29.0967 52.6689C29.0969 54.2027 30.4262 55.6345 32.1133 55.6348C34.0051 55.6348 35.1815 54.1006 35.1816 52.6689C35.1816 51.135 33.699 49.6007 32.165 49.6006ZM41.6768 49.6006C40.245 49.6006 38.6084 50.8281 38.6084 52.6689C38.6085 54.2029 39.836 55.6348 41.6768 55.6348C43.3129 55.6347 44.7958 54.3562 44.7959 52.6689C44.7959 50.9304 43.2107 49.6007 41.6768 49.6006ZM32.165 40.7549C34.0058 40.755 35.8467 42.0329 35.8467 44.6406C35.8467 46.5326 34.3632 48.2715 32.1133 48.2715C30.0681 48.2713 28.3809 46.7367 28.3809 44.6914C28.381 43.1574 29.5062 41.0105 32.165 40.7549ZM32.165 41.5215C30.5287 41.5215 29.0967 42.8509 29.0967 44.6406C29.0967 46.1234 30.426 47.5554 32.1133 47.5557C33.903 47.5557 35.1816 46.2254 35.1816 44.6914C35.1814 43.0553 33.6989 41.5216 32.165 41.5215ZM60.2881 38.4531C62.3334 38.4532 64.1738 40.1917 64.1738 42.8506C64.1738 44.8959 62.6403 46.9416 60.1348 47.0439C57.7315 47.1462 56.1973 45.3052 56.1973 42.9531C56.1973 41.01 57.6291 38.4531 60.2881 38.4531ZM4.1416 38.4531C6.34034 38.4531 8.02824 40.1916 8.02832 43.0039C8.02832 44.8959 6.44302 47.0439 3.9375 47.0439C1.73871 47.0439 0 45.4072 0 43.0039C0.000118447 41.0609 1.68739 38.4533 4.1416 38.4531ZM3.9375 39.2715C2.50573 39.2715 0.869141 40.5498 0.869141 42.9531C0.869227 44.3848 2.09647 46.3279 4.1416 46.3281C5.72678 46.3281 7.3125 44.9982 7.3125 43.0039C7.31239 41.2654 5.88047 39.2716 3.9375 39.2715ZM60.2373 39.2715C58.4476 39.2204 57.0157 40.8053 57.0156 42.8506C57.0156 44.3846 58.1403 46.328 60.1855 46.3281C62.2309 46.3281 63.5605 44.6916 63.5605 42.9531C63.5605 41.0102 61.8224 39.2718 60.2373 39.2715ZM22.7559 32.7773C24.6989 32.7774 26.5908 34.2603 26.5908 36.3057C26.5908 38.2487 25.1591 40.1913 22.7559 40.1914C20.5059 40.1914 18.8184 38.4533 18.8184 36.3057C18.8184 34.6694 20.1991 32.7773 22.7559 32.7773ZM32.2676 32.5723C34.1082 32.5725 35.8467 33.9534 35.8467 36.2031C35.8467 38.1462 34.3632 39.8848 32.1133 39.8848C30.017 39.8846 28.3809 38.2484 28.3809 36.2031C28.3809 34.618 29.5063 32.5723 32.2676 32.5723ZM22.7559 33.4424C21.4264 33.4424 19.585 34.3625 19.585 36.3057C19.585 38.0442 21.0684 39.374 22.7559 39.374C24.3921 39.374 25.8242 38.1464 25.8242 36.3057C25.8242 34.6694 24.2899 33.4425 22.7559 33.4424ZM32.165 33.2373C30.8355 33.2373 29.0967 34.26 29.0967 36.2031C29.0967 37.4815 30.3242 39.0664 32.165 39.0664C34.0057 39.0663 35.1816 37.6348 35.1816 36.2031C35.1816 34.4646 33.5968 33.2374 32.165 33.2373ZM60.2373 28.9932C62.3337 28.9934 64.1738 30.6814 64.1738 33.1357C64.1736 35.2832 62.6398 37.0723 60.1855 37.0723C57.8847 37.1744 56.1975 35.3854 56.1973 33.1357C56.1973 30.9881 57.7317 28.9932 60.2373 28.9932ZM4.14355 28.9932C6.29103 28.9934 8.08008 30.7837 8.08008 33.1357C8.07985 35.1809 6.44413 37.0722 3.8877 37.0723C1.84233 37.0723 0.103553 35.4875 0.103516 33.1865C0.103516 31.1411 1.84249 28.9932 4.14355 28.9932ZM3.8877 29.709C2.45592 29.709 0.870117 30.937 0.870117 33.1357C0.870345 34.6697 2.09808 36.3057 4.04102 36.3057C5.98391 36.3056 7.31327 34.9252 7.31348 33.1357C7.31348 31.295 5.57507 29.7091 3.8877 29.709ZM60.2373 29.709C58.5499 29.709 57.0156 31.1412 57.0156 33.0332C57.0157 35.1295 58.6516 36.3055 60.1855 36.3057C62.2308 36.3057 63.5603 34.7719 63.5605 33.1357C63.5605 31.1928 61.9246 29.7092 60.2373 29.709ZM41.4697 25.1582C43.8219 25.1582 45.3561 26.7949 45.4072 28.6357C45.407 30.5787 43.924 32.2148 41.4697 32.2148C39.22 32.317 37.635 30.5787 37.6348 28.6357C37.6348 27.204 38.8108 25.1583 41.4697 25.1582ZM22.7559 24.6465C24.5966 24.6465 26.6414 25.9762 26.6416 28.3281C26.6416 30.5268 24.9036 32.0613 22.7051 32.0615C20.6086 32.0615 18.8184 30.4758 18.8184 28.3281C18.8185 26.7941 20.097 24.6465 22.7559 24.6465ZM41.4697 25.874C40.038 25.8741 38.4531 26.9995 38.4531 28.6357C38.4533 30.2718 39.8336 31.499 41.4697 31.499C42.9014 31.499 44.6404 30.323 44.6406 28.6357C44.6406 26.9994 43.2083 25.874 41.4697 25.874ZM22.7559 25.3623C21.3242 25.3623 19.5851 26.4363 19.585 28.3281C19.585 30.0667 21.0682 31.3456 22.6533 31.3457C24.3408 31.3457 25.8242 30.0667 25.8242 28.3281C25.824 26.5898 24.2898 25.3624 22.7559 25.3623ZM60.2881 19.2783C62.3335 19.2783 64.1738 20.9146 64.1738 23.5225C64.1736 25.5677 62.6398 27.6129 60.1855 27.6641C57.8847 27.7662 56.1975 25.9766 56.1973 23.5225C56.1973 21.5793 57.6802 19.2783 60.2881 19.2783ZM4.1416 19.2773C6.28912 19.2262 8.02716 20.965 8.02734 23.5215C8.02734 25.4646 6.28907 27.6641 3.88574 27.6641C1.68709 27.664 0.050884 25.9253 0.0507812 23.5732C0.0507812 21.8347 1.58487 19.2773 4.1416 19.2773ZM3.88574 20.0449C2.50522 20.045 0.869331 21.2208 0.869141 23.5215C0.869141 24.9021 2.04508 26.8965 4.1416 26.8965C5.77783 26.8965 7.3114 25.4651 7.31152 23.5732C7.31152 21.8858 5.87999 20.0449 3.88574 20.0449ZM60.2373 20.0449C58.4476 20.0449 57.0156 21.4771 57.0156 23.5225C57.0159 25.0564 58.2432 26.8965 60.2373 26.8965C62.2312 26.8963 63.5603 25.2608 63.5605 23.5225C63.5605 21.5795 61.9246 20.0452 60.2373 20.0449ZM41.5723 17.1816C43.6176 17.1817 45.3561 18.5111 45.4072 20.8633C45.407 22.4995 44.0262 24.4424 41.4697 24.4424C39.22 24.4423 37.635 22.9084 37.6348 20.8633C37.6348 19.4315 38.9133 17.3862 41.5723 17.1816ZM41.5215 17.999C40.0386 17.999 38.4014 19.0736 38.4014 20.8633C38.4016 22.1927 39.6294 23.8288 41.5723 23.7266C43.1062 23.7265 44.6406 22.4992 44.6406 20.9141C44.6406 19.329 43.2087 17.9993 41.5215 17.999ZM60.2373 9.5625C62.3336 9.56271 64.1737 11.2497 64.1738 13.6016C64.1738 15.8004 62.5377 17.7441 60.1855 17.7441C57.9357 17.8463 56.1973 16.0559 56.1973 13.6016C56.1975 11.6585 57.8341 9.5625 60.2373 9.5625ZM4.09082 9.5625C6.13597 9.56271 8.07892 11.1986 8.0791 13.6016C8.0791 15.6469 6.44248 17.7441 3.88574 17.7441C1.94267 17.7441 0.0507812 16.3119 0.0507812 13.7041C0.050817 11.761 1.73865 9.5625 4.09082 9.5625ZM32.165 9.2041C34.3638 9.20413 36.1533 10.892 36.1533 13.0908C36.1531 15.0337 34.6705 16.9764 32.1143 16.9766C29.8133 16.9766 28.0743 15.2381 28.0742 12.9883C28.0742 11.352 29.506 9.2041 32.165 9.2041ZM3.9375 10.3291C2.50581 10.3291 0.920093 11.5564 0.919922 13.6016C0.919922 15.2379 2.30084 16.875 3.98828 16.875C5.77794 16.8749 7.31152 15.4935 7.31152 13.6016C7.31133 11.9655 5.88024 10.3294 3.9375 10.3291ZM60.2373 10.3291C58.9079 10.3291 57.0158 11.3519 57.0156 13.6016C57.0156 15.2378 58.3448 16.8749 60.1855 16.875C61.8219 16.875 63.5605 15.6469 63.5605 13.6016C63.5604 11.761 62.0267 10.3293 60.2373 10.3291ZM32.1143 9.91992C30.4268 9.91992 28.8926 11.1477 28.8926 13.0908C28.8929 14.7269 30.2731 16.1581 32.0625 16.1582C33.9032 16.1582 35.3864 14.6758 35.3867 13.0908C35.3867 11.4546 33.9038 9.92015 32.1143 9.91992ZM22.6016 0C24.4935 0 26.8456 1.53395 26.8457 3.98828C26.8457 6.23821 25.2094 8.23242 22.6016 8.23242C20.3005 8.2324 18.3574 6.44273 18.3574 3.98828C18.3575 2.09637 19.9938 2.03831e-05 22.6016 0ZM32.1143 0C34.313 0 36.2567 1.68734 36.2568 3.98828C36.2568 6.23821 34.5687 8.23242 32.1143 8.23242C29.9156 8.23228 27.9727 6.64716 27.9727 3.98828C27.9728 2.09643 29.5067 0.000163679 32.1143 0ZM41.6758 0C43.8233 0.000161764 45.868 1.63632 45.8682 3.98828C45.8682 6.23811 44.1301 8.18147 41.6758 8.18164C39.2725 8.18164 37.4824 6.44275 37.4824 3.98828C37.4825 2.14748 39.0169 0 41.6758 0ZM22.6016 0.71582C20.7097 0.715842 19.1242 2.30093 19.124 3.98828C19.124 5.77798 20.6073 7.41404 22.6016 7.41406C24.3913 7.41406 26.0273 5.98253 26.0273 3.98828C26.0272 2.14754 24.2889 0.71582 22.6016 0.71582ZM32.1143 0.665039C30.3247 0.665196 28.7394 2.04539 28.7393 3.98828C28.7393 5.77799 30.0692 7.41406 32.0635 7.41406C33.9043 7.41404 35.4385 5.98252 35.4385 3.98828C35.4383 2.04528 33.6994 0.665039 32.1143 0.665039ZM41.6758 0.71582C39.9373 0.71582 38.2492 2.09641 38.249 3.98828C38.249 5.62459 39.4767 7.41406 41.5732 7.41406C43.3629 7.41404 45.1523 6.03365 45.1523 3.98828C45.1522 2.14765 43.5164 0.715985 41.6758 0.71582Z" fill="url(#paint0_linear_1240_112)"/>
<path d="M22.6533 40.9079C24.6984 40.9079 25.9254 42.5947 26.2324 43.9752C26.4369 45.4068 26.0281 46.3275 25.3124 46.9411C24.1875 47.9637 23.0625 47.9131 21.6308 47.862C19.5854 47.7597 16.7212 50.1121 16.9257 52.7711C16.9767 54.9187 15.3917 56.4528 13.0908 56.4528C10.9944 56.4526 9.51165 54.7135 9.51165 52.8727C9.56303 50.9809 11.3014 49.0895 13.4999 49.3961L14.5224 49.4987C16.8235 49.4476 19.1758 46.8902 19.0224 44.6403C19.0225 42.3393 20.8125 40.9079 22.6533 40.9079ZM41.7763 40.9079C44.0262 40.9079 45.5609 42.8508 45.3564 44.8961C45.1518 47.1461 47.9129 49.9583 50.4697 49.4469C53.0263 49.1913 54.8671 51.0324 54.8671 53.0778C54.8671 54.9186 53.3331 56.4528 51.1855 56.4528C48.9356 56.4528 47.5042 54.8158 47.4531 52.8727C47.6574 51.1343 46.7873 49.7022 45.6113 48.7819C44.3332 47.8618 43.4128 47.7086 42.288 47.862C39.9358 48.1688 38.2995 46.4301 38.1972 44.487C38.1972 42.5951 39.7311 40.908 41.7763 40.9079ZM50.9814 9.71548C53.1289 9.71548 54.8171 11.3516 54.8173 13.2946C54.8173 14.6241 53.9474 15.7493 52.9247 16.3629C51.2887 17.2834 51.6976 19.5334 52.9247 20.3004C54.2542 21.1697 54.8173 22.2949 54.8173 23.5221C54.8172 24.9536 53.8457 26.0784 52.8232 26.692C51.3914 27.459 51.5953 29.5558 52.9247 30.3229C54.152 31.0899 54.8173 32.2148 54.8173 33.442C54.8173 34.618 53.8458 35.8968 52.8232 36.5104C51.2891 37.4308 51.4937 39.7828 52.8232 40.4987C54.2546 41.3169 54.8173 42.7486 54.8173 43.6178C54.8173 45.7143 53.2313 47.3502 50.9814 47.3502C48.9362 47.35 47.4024 45.8672 47.249 43.8219C47.2487 41.521 45.2546 39.6806 43.0048 39.7829L41.5732 39.8854C39.2721 39.9877 37.9941 37.8391 37.9941 36.2028C38.0448 33.6464 35.0282 31.4995 33.3408 31.7038L32.7783 31.8053C30.4262 32.1121 28.687 30.1696 28.789 28.0221C28.789 26.4881 27.6641 24.9538 26.2324 24.2379C24.8007 23.5222 24.1869 23.829 23.2665 23.9313C20.9145 24.1356 19.176 22.0895 19.2783 20.0954C19.2779 17.59 16.7211 15.8008 15.0849 16.4655C13.858 17.2328 13.6538 19.5334 15.29 20.4538C16.5172 21.2719 17.08 22.346 17.08 23.5221C17.0799 24.9537 16.3125 26.0785 15.29 26.692C13.6537 27.4591 13.9605 29.7601 15.29 30.3737C16.4149 31.0896 17.08 32.3171 17.08 33.442C17.08 34.7713 16.3128 35.7939 15.3925 36.4586C13.6539 37.4302 13.6539 39.7312 15.3925 40.7028C16.4151 41.3164 17.08 42.544 17.08 43.6178C17.08 45.6121 15.5965 47.3502 13.3466 47.3502C11.4036 47.3502 9.66497 45.6118 9.66497 43.362C9.76727 42.0326 10.5852 40.9075 11.4033 40.3961C12.835 39.6803 12.9379 37.4302 11.3017 36.4586C10.0745 35.7939 9.56279 34.6181 9.51165 33.5954C9.51166 32.3171 10.3807 31.0899 11.4033 30.4762C12.9373 29.7603 12.835 27.5102 11.4033 26.692C10.2786 26.0784 9.51177 24.7491 9.51165 23.5221C9.51165 22.0905 10.3807 20.9141 11.4033 20.3004C12.7327 19.6357 12.9379 17.1809 11.3017 16.2604C10.0745 15.6468 9.51169 14.4199 9.51165 13.0905C9.61392 11.1475 11.3523 9.71569 13.2441 9.71548C15.6985 9.71548 17.1305 11.9654 17.0283 13.3971C16.9771 15.4424 19.4826 17.6922 21.7324 17.1813C24.5959 16.7722 26.3346 19.0223 26.2324 21.1188C26.2326 23.3684 28.8913 25.4648 30.6298 25.3629L31.5507 25.2604C34.0052 25.0559 35.641 26.9995 35.4365 29.1471C35.4369 31.5501 38.4538 33.6467 40.3456 33.3913L41.4706 33.237C43.5672 33.237 44.8459 34.8738 44.9482 36.4079C44.8459 37.4305 45.152 38.0445 45.6122 38.7604C46.5837 40.2942 48.6291 41.0097 49.7031 39.8854C50.5212 38.965 50.4705 37.2768 48.9365 36.4586C47.9139 35.8961 47.1982 34.6692 47.1982 33.442C47.1982 32.2148 48.0163 31.0898 49.039 30.4762C50.4706 29.7603 50.7768 27.6122 49.1406 26.5895C47.8114 25.8735 47.249 24.4421 47.249 23.4196C47.249 21.8857 48.118 20.7608 49.1406 20.1471C50.5723 19.2778 50.4707 17.0275 49.039 16.2604C47.8118 15.6468 47.249 14.4195 47.249 13.2946C47.2492 11.1473 49.3452 9.71577 50.9814 9.71548ZM13.499 0.306303C15.4931 0.306303 17.2833 2.0961 17.079 3.98794L17.0273 4.8063C16.9761 6.34033 18.0501 7.87486 19.2773 8.69302C20.7089 9.61337 21.4251 9.40858 22.0898 9.3063C24.9019 9.10178 26.6409 11.2491 26.539 13.192C26.4367 16.209 29.0958 17.9994 30.6298 17.8971L31.9589 17.7946C34.1577 17.9991 35.4872 19.8399 35.4872 21.4762C35.4872 23.4192 34.0046 24.6977 32.3173 24.6979C30.0164 24.6979 28.6866 22.6015 28.6865 20.8629C28.7887 19.0221 27.5609 17.4366 26.2314 16.6696C24.5954 15.7495 23.9815 16.2604 23.1122 16.2604C21.9362 16.567 20.4026 16.0047 19.6357 14.8288C18.8687 13.8061 18.9706 12.9881 18.9706 12.1188C18.9706 9.71564 16.3121 7.56798 14.5224 7.6188L13.1415 7.66958C10.8916 7.66958 9.35768 5.62467 9.4599 3.78384C9.61329 2.04536 11.1981 0.204257 13.499 0.306303ZM51.1845 0.30728C53.1275 0.30728 54.8148 1.84081 54.8661 3.93716C54.8661 5.98254 53.5367 7.87446 50.4687 7.6188C47.6053 7.66993 44.9468 10.8403 45.0488 12.9879C45.0488 15.1354 43.3101 16.3627 41.3671 16.3629C39.6285 16.3629 38.0429 15.2381 38.0429 13.0905C38.043 11.4542 39.8331 9.71603 42.0829 9.92056C44.9463 9.92029 47.6561 7.0053 47.247 4.19302C47.196 1.84091 49.1392 0.205013 51.1845 0.30728Z" fill="url(#paint1_linear_1240_112)"/>
<path d="M181.729 48.2912C178.99 48.2912 176.57 47.6721 174.469 46.4339C172.368 45.1581 170.717 43.4133 169.516 41.1995C168.315 38.9482 167.715 36.3591 167.715 33.4324C167.715 30.5057 168.315 27.9354 169.516 25.7216C170.717 23.4703 172.368 21.7255 174.469 20.4872C176.57 19.249 178.99 18.6299 181.729 18.6299C184.506 18.6299 186.945 19.249 189.046 20.4872C191.147 21.7255 192.798 23.4703 193.999 25.7216C195.2 27.9354 195.8 30.5057 195.8 33.4324C195.8 36.3591 195.2 38.9482 193.999 41.1995C192.798 43.4133 191.147 45.1581 189.046 46.4339C186.945 47.6721 184.506 48.2912 181.729 48.2912ZM181.729 43.7323C183.568 43.7323 185.163 43.3195 186.513 42.494C187.902 41.631 188.99 40.4303 189.778 38.8919C190.566 37.316 190.96 35.4961 190.96 33.4324C190.96 31.3312 190.566 29.5301 189.778 28.0292C188.99 26.4908 187.902 25.3088 186.513 24.4834C185.163 23.6203 183.568 23.1888 181.729 23.1888C179.928 23.1888 178.334 23.6203 176.945 24.4834C175.557 25.3088 174.469 26.4908 173.681 28.0292C172.893 29.5301 172.499 31.3312 172.499 33.4324C172.499 35.4961 172.893 37.316 173.681 38.8919C174.469 40.4303 175.557 41.631 176.945 42.494C178.334 43.3195 179.928 43.7323 181.729 43.7323Z" fill="#394045"/>
<path d="M150.201 47.5595V19.3616H154.816V27.2975L153.466 26.4533C154.141 24.277 155.398 22.551 157.237 21.2752C159.075 19.9994 161.139 19.3616 163.428 19.3616H166.298V23.8642H162.696C161.158 23.8642 159.807 24.2395 158.644 24.9899C157.518 25.7028 156.617 26.7159 155.942 28.0292C155.304 29.305 154.985 30.8059 154.985 32.5319V47.5595H150.201Z" fill="#394045"/>
<path d="M144.55 19.3616V47.5595H139.934V39.6236L141.285 40.4678C140.76 42.0438 139.934 43.4321 138.809 44.6328C137.721 45.796 136.407 46.6965 134.869 47.3344C133.368 47.9723 131.736 48.2912 129.972 48.2912C127.946 48.2912 126.145 47.8597 124.569 46.9967C122.993 46.1337 121.736 44.8579 120.798 43.1694C119.898 41.4434 119.447 39.3234 119.447 36.8094V19.3616H124.231V35.5712C124.231 37.5974 124.532 39.2108 125.132 40.4116C125.77 41.5747 126.595 42.419 127.608 42.9443C128.659 43.4321 129.841 43.676 131.154 43.676C132.618 43.676 133.987 43.3195 135.263 42.6066C136.576 41.8937 137.646 40.8431 138.471 39.4547C139.334 38.0664 139.766 36.3591 139.766 34.3329V19.3616H144.55Z" fill="#394045"/>
<path d="M108.891 47.5597L83.0566 9.51218V8.16138H87.8407L113.675 46.2089V47.5597H108.891ZM83.0566 47.5597V8.16138H87.8407V47.5597H83.0566ZM108.891 47.5597V8.16138H113.675V47.5597H108.891Z" fill="#394045"/>
<defs>
<linearGradient id="paint0_linear_1240_112" x1="2.88533" y1="0.849759" x2="63.5548" y2="57.9049" gradientUnits="userSpaceOnUse">
<stop stop-color="#D1DAEF"/>
<stop offset="1" stop-color="#EFE2C2"/>
</linearGradient>
<linearGradient id="paint1_linear_1240_112" x1="5.28457" y1="-4.37154" x2="71.2259" y2="43.8153" gradientUnits="userSpaceOnUse">
<stop stop-color="#9CC0FF"/>
<stop offset="0.5" stop-color="#BAA4FF"/>
<stop offset="1" stop-color="#FFB6D9"/>
</linearGradient>
</defs>
</svg>
