<svg xmlns="http://www.w3.org/2000/svg" width="325.862" height="115.986" viewBox="0 0 325.862 115.986" fill="none">
  <path d="M 119.004 79.222 C 119.004 85.078 119.871 89.742 121.606 93.212 C 123.45 96.574 125.837 99.014 128.765 100.532 C 131.801 101.942 135.217 102.647 139.013 102.647 C 143.242 102.647 147.201 101.617 150.888 99.557 C 154.683 97.496 157.774 94.459 160.16 90.446 C 162.654 86.434 163.902 81.5 163.902 75.644 L 163.902 32.372 L 177.729 32.372 L 177.729 113.871 L 164.39 113.871 L 164.39 101.338 C 163.424 102.77 162.34 104.128 161.137 105.412 C 157.992 108.774 154.195 111.377 149.749 113.221 C 145.411 115.064 140.694 115.986 135.597 115.986 C 129.741 115.986 124.535 114.739 119.98 112.245 C 115.426 109.751 111.792 106.063 109.081 101.183 C 106.478 96.194 105.177 90.067 105.177 82.801 L 105.177 32.372 L 119.004 32.372 L 119.004 79.222 Z M 285.194 30.258 C 293.22 30.258 300.269 32.047 306.342 35.626 C 312.415 39.205 317.187 44.247 320.657 50.754 C 324.128 57.152 325.862 64.581 325.862 73.04 C 325.862 81.499 324.128 88.982 320.657 95.489 C 317.187 101.888 312.415 106.931 306.342 110.618 C 300.269 114.197 293.22 115.986 285.194 115.986 C 277.278 115.986 270.282 114.197 264.209 110.618 C 258.136 106.931 253.364 101.888 249.894 95.489 C 246.423 88.982 244.688 81.499 244.688 73.04 C 244.689 64.581 246.423 57.152 249.894 50.754 C 253.364 44.247 258.136 39.205 264.209 35.626 C 270.282 32.047 277.278 30.258 285.194 30.258 Z M 13.827 0 L 74.667 89.603 L 74.667 0 L 88.494 0 L 88.494 113.871 L 74.667 113.871 L 13.827 24.268 L 13.827 113.871 L 0 113.871 L 0 0 L 13.827 0 Z M 207.406 44.81 C 209.272 42.147 211.604 39.845 214.401 37.903 C 219.715 34.216 225.681 32.372 232.296 32.372 L 240.592 32.372 L 240.592 45.386 L 230.181 45.386 C 225.734 45.386 221.831 46.471 218.469 48.64 C 215.215 50.7 212.612 53.628 210.66 57.424 C 208.817 61.111 207.895 65.449 207.895 70.438 L 207.895 113.871 L 194.067 113.871 L 194.067 32.372 L 207.406 32.372 L 207.406 44.81 Z M 285.194 43.434 C 279.989 43.434 275.38 44.681 271.367 47.176 C 267.355 49.562 264.209 52.977 261.932 57.424 C 259.654 61.762 258.516 66.967 258.516 73.04 C 258.516 79.005 259.654 84.265 261.932 88.819 C 264.209 93.266 267.355 96.736 271.367 99.23 C 275.38 101.616 279.989 102.81 285.194 102.81 C 290.508 102.81 295.117 101.616 299.021 99.23 C 303.034 96.736 306.179 93.266 308.456 88.819 C 310.733 84.265 311.873 79.005 311.873 73.04 C 311.873 66.967 310.733 61.762 308.456 57.424 C 306.179 52.978 303.034 49.562 299.021 47.176 C 295.117 44.681 290.508 43.434 285.194 43.434 Z" fill="currentColor" fill-rule="nonzero"></path>
</svg>